888      888 888               888 888 
                           888      888 888               888 888 
                           888      888 888               888 888 
              .d88b.   .d88888  .d88888 88888b.   8888b.  888 888 
             d88""88b d88" 888 d88" 888 888 "88b     "88b 888 888 
             888  888 888  888 888  888 888  888 .d888888 888 888 
             Y88..88P Y88b 888 Y88b 888 888 d88P 888  888 888 888 
              "Y88P"   "Y88888  "Y88888 88888P"  "Y888888 888 888 
                                       -links.com 


Angels & Demons is a 2009 American film adaptation of Dan Brown's novel by the same name. It is the sequel to The Da Vinci Code, even though the novel Angels & Demons was published first and takes place before the novel The Da Vinci Code. Filming took place in Rome, Italy, and the Sony Pictures Studios in Culver City, California. Tom Hanks reprises the lead role of Robert Langdon, while director Ron Howard, producer Brian Grazer, composer Hans Zimmer and screenwriter Akiva Goldsman also return.

Screen Shots 
 
http://i724.photobucket.com/albums/ww246/oddball-links/AngelsAndDemons/5.jpg
 
http://i724.photobucket.com/albums/ww246/oddball-links/AngelsAndDemons/4.jpg
 
http://i724.photobucket.com/albums/ww246/oddball-links/AngelsAndDemons/3.jpg
 
http://i724.photobucket.com/albums/ww246/oddball-links/AngelsAndDemons/2.jpg
 
http://i724.photobucket.com/albums/ww246/oddball-links/AngelsAndDemons/1.jpg


                                    +-+-+-+-+
                                    |c|a|s|t|
                                    +-+-+-+-+
                                         
                  Actor                              Role

                  Tom Hanks .......................  Robert Langdon 

                  Ewan McGregor ...................  Camerlengo Patrick McKenna 

                  Ayelet Zurer ....................  Vittoria Vetra 

                  Stellan Skarsgård ...............  Commander Richter 

                  Pierfrancesco Favino ............  Inspector Olivetti 

                  Nikolaj Lie Kaas ................  Assassin 

                  Armin Mueller-Stahl .............  Cardinal Strauss 

                  Thure Lindhardt .................  Chartrand 

                  David Pasquesi ..................  Claudio Vincenzi 

                  Cosimo Fusco ....................  Father Simeon 

                  Victor Alfieri ..................  Lieutenant Valenti 


General
Complete name                    : Angels & Demons
Format                           : AVI
Format/Info                      : Audio Video Interleave
File size                        : 1.07 GiB
Duration                         : 2h 13mn
Overall bit rate                 : 1 142 Kbps

Video
Format                           : MPEG-4 Visual
Format profile                   : Streaming Video@L1
Format settings, BVOP            : Yes
Format settings, QPel            : No
Format settings, GMC             : No warppoints
Format settings, Matrix          : Default
Muxing mode                      : Packed bitstream
Codec ID                         : XVID
Codec ID/Hint                    : XviD
Duration                         : 2h 13mn
Bit rate                         : 939 Kbps
Width                            : 1 024 pixels
Height                           : 582 pixels
Display aspect ratio             : 16/9
Frame rate                       : 29.970 fps
Resolution                       : 24 bits
Colorimetry                      : 4:2:0
Scan type                        : Progressive
Bits/(Pixel*Frame)               : 0.053
Stream size                      : 898 MiB (82%)
Writing library                  : XviD 1.1.0 (UTC 2005-11-22)

Audio
Format                           : MPEG Audio
Format version                   : Version 1
Format profile                   : Layer 3
Codec ID                         : 55
Codec ID/Hint                    : MP3
Duration                         : 2h 13mn
Bit rate mode                    : Constant
Bit rate                         : 192 Kbps
Channel(s)                       : 2 channels
Sampling rate                    : 44.1 KHz
Resolution                       : 16 bits
Video delay                      : 26ms
Stream size                      : 184 MiB (17%)
Alignment                        : Split accross interleaves
Interleave, duration             : 33 ms (1.00 video frame)
Title                            : Audio Stream
Writing library                  : LAME3.92

For more oddball torrents  http://thepiratebay.org/user/oddball-links `                                                                                                            Please seed after downloading `                                                                                            :::===  :::===== :::===== :::====       :::= === :::====  :::====
        :::     :::      :::      :::  ===      :::===== :::  === :::====
         =====  ======   ======   ===  ===      ======== ===  ===   ===  
            === ===      ===      ===  ===      === ==== ===  ===   ===  
        ======  ======== ======== =======       ===  ===  ======    ===  
                                                                         
                  :::=====  :::====  :::===== :::===== :::==== 
                  :::       :::  === :::      :::      :::  ===
                  === ===== =======  ======   ======   ===  ===
                  ===   === === ===  ===      ===      ===  ===
                   =======  ===  === ======== ======== =======